<svg width="34" height="27" viewBox="0 0 34 27" fill="none" xmlns="http://www.w3.org/2000/svg">
<path d="M5.89488 1.09503C4.52243 1.43177 3.44247 2.08422 2.29501 3.24177C0.855065 4.71502 0.405081 5.83049 0.382582 7.95618C0.382582 9.49257 0.472579 9.9135 0.990059 10.9237C1.35005 11.5762 1.98002 12.4391 2.43001 12.8811L3.23998 13.6598L2.40751 14.5227C-1.07986 18.1216 -0.0224029 23.6568 4.54493 25.8457C5.03991 26.0772 5.48989 26.2666 5.55739 26.2666C5.62489 26.2666 5.66989 25.6142 5.66989 24.8354C5.66989 23.4885 5.62489 23.3832 4.88241 22.7097C4.43243 22.3309 3.93745 21.7627 3.77996 21.447C2.61 19.3002 3.59996 16.6273 5.96237 15.554C6.90734 15.133 7.24483 15.112 16.7845 15.112C23.2867 15.112 26.7741 15.0278 27.0666 14.8805C28.0791 14.3753 28.0116 12.7127 26.9541 12.4812C26.6841 12.418 22.0268 12.3549 16.582 12.3128L6.68235 12.2707L5.62489 11.6814C2.04752 9.72408 2.76749 4.79921 6.77234 3.74689C7.26733 3.62061 12.4871 3.53642 20.3618 3.53642C32.8264 3.53642 33.1189 3.53642 33.5688 3.11549C34.1763 2.54724 34.1313 1.81061 33.5014 1.2634L32.9839 0.800381L19.9344 0.821426C10.3947 0.821426 6.63735 0.905613 5.89488 1.09503Z" fill="white" fill-opacity="0.6"/>
</svg>
