<svg width="25" height="25" viewBox="0 0 25 25" fill="none" xmlns="http://www.w3.org/2000/svg">
<path fill-rule="evenodd" clip-rule="evenodd" d="M7.43766 0.0736666C8.74692 0.0133939 9.16437 0 12.4995 0C15.8345 0 16.252 0.0145101 17.5601 0.0736666C18.8683 0.132823 19.7612 0.341545 20.5425 0.644025C21.3607 0.953202 22.1029 1.4365 22.7168 2.06155C23.3419 2.67432 23.824 3.41545 24.1321 4.23472C24.4357 5.01603 24.6433 5.90896 24.7036 7.21487C24.7638 8.52636 24.7772 8.9438 24.7772 12.2778C24.7772 15.6129 24.7627 16.0303 24.7036 17.3396C24.6444 18.6455 24.4357 19.5384 24.1321 20.3197C23.824 21.1391 23.341 21.8815 22.7168 22.4951C22.1029 23.1202 21.3607 23.6024 20.5425 23.9104C19.7612 24.214 18.8683 24.4216 17.5624 24.4819C16.252 24.5422 15.8345 24.5556 12.4995 24.5556C9.16437 24.5556 8.74692 24.541 7.43766 24.4819C6.13176 24.4227 5.23883 24.214 4.45751 23.9104C3.63816 23.6023 2.8958 23.1193 2.28211 22.4951C1.65749 21.882 1.17412 21.14 0.865705 20.3208C0.563225 19.5395 0.355619 18.6466 0.295346 17.3407C0.235074 16.0292 0.22168 15.6118 0.22168 12.2778C0.22168 8.94269 0.23619 8.52524 0.295346 7.2171C0.354503 5.90896 0.563225 5.01603 0.865705 4.23472C1.17457 3.41555 1.65831 2.67356 2.28323 2.06043C2.89605 1.43594 3.63766 0.952581 4.4564 0.644025C5.23771 0.341545 6.13064 0.133939 7.43655 0.0736666H7.43766ZM17.4608 2.28367C16.166 2.22451 15.7776 2.21223 12.4995 2.21223C9.22129 2.21223 8.83287 2.22451 7.53812 2.28367C6.34048 2.33836 5.69087 2.53815 5.2578 2.70669C4.68521 2.92992 4.27558 3.19445 3.84586 3.62418C3.43851 4.02047 3.12502 4.50291 2.92837 5.03612C2.75983 5.46919 2.56004 6.1188 2.50535 7.31644C2.44619 8.61119 2.43391 8.99961 2.43391 12.2778C2.43391 15.5559 2.44619 15.9444 2.50535 17.2391C2.56004 18.4368 2.75983 19.0864 2.92837 19.5194C3.12482 20.0518 3.43846 20.5351 3.84586 20.9314C4.24209 21.3388 4.72539 21.6524 5.2578 21.8489C5.69087 22.0174 6.34048 22.2172 7.53812 22.2719C8.83287 22.331 9.22017 22.3433 12.4995 22.3433C15.7787 22.3433 16.166 22.331 17.4608 22.2719C18.6584 22.2172 19.308 22.0174 19.7411 21.8489C20.3137 21.6256 20.7233 21.3611 21.1531 20.9314C21.5605 20.5351 21.8741 20.0518 22.0705 19.5194C22.2391 19.0864 22.4389 18.4368 22.4936 17.2391C22.5527 15.9444 22.565 15.5559 22.565 12.2778C22.565 8.99961 22.5527 8.61119 22.4936 7.31644C22.4389 6.1188 22.2391 5.46919 22.0705 5.03612C21.8473 4.46353 21.5828 4.0539 21.1531 3.62418C20.7567 3.21686 20.2743 2.90337 19.7411 2.70669C19.308 2.53815 18.6584 2.33836 17.4608 2.28367ZM10.9313 16.0627C11.8071 16.4273 12.7823 16.4765 13.6903 16.2019C14.5984 15.9273 15.3829 15.346 15.91 14.5573C16.4371 13.7685 16.674 12.8212 16.5802 11.8772C16.4864 10.9332 16.0678 10.051 15.3959 9.38134C14.9676 8.95326 14.4496 8.62549 13.8794 8.4216C13.3092 8.21772 12.7008 8.1428 12.0982 8.20224C11.4955 8.26168 10.9136 8.45401 10.3942 8.76536C9.87475 9.07672 9.43084 9.49937 9.09439 10.0029C8.75793 10.5064 8.53729 11.0782 8.44837 11.6772C8.35944 12.2763 8.40443 12.8875 8.5801 13.4671C8.75577 14.0466 9.05775 14.58 9.4643 15.0288C9.87085 15.4776 10.3719 15.8307 10.9313 16.0627ZM8.03704 7.81536C8.62306 7.22935 9.31875 6.7645 10.0844 6.44735C10.8501 6.13021 11.6707 5.96697 12.4995 5.96697C13.3282 5.96697 14.1488 6.1302 14.9145 6.44735C15.6802 6.7645 16.3759 7.22935 16.9619 7.81536C17.5479 8.40138 18.0127 9.09707 18.3299 9.86274C18.647 10.6284 18.8103 11.449 18.8103 12.2778C18.8103 13.1065 18.647 13.9272 18.3299 14.6928C18.0127 15.4585 17.5479 16.1542 16.9619 16.7402C15.7784 17.9237 14.1732 18.5886 12.4995 18.5886C10.8257 18.5886 9.22055 17.9237 8.03704 16.7402C6.85354 15.5567 6.18865 13.9515 6.18865 12.2778C6.18865 10.604 6.85354 8.99887 8.03704 7.81536ZM20.2099 6.90681C20.3551 6.76982 20.4714 6.60509 20.5518 6.42236C20.6322 6.23964 20.6751 6.04264 20.678 5.84303C20.6809 5.64341 20.6438 5.44525 20.5687 5.26026C20.4937 5.07527 20.3823 4.90722 20.2411 4.76605C20.0999 4.62489 19.9319 4.51349 19.7469 4.43844C19.5619 4.36339 19.3637 4.32622 19.1641 4.32913C18.9645 4.33204 18.7675 4.37497 18.5848 4.45538C18.4021 4.53579 18.2373 4.65204 18.1004 4.79726C17.8339 5.07968 17.6881 5.45482 17.6937 5.84303C17.6994 6.23124 17.8561 6.60196 18.1307 6.8765C18.4052 7.15103 18.7759 7.30777 19.1641 7.31342C19.5523 7.31908 19.9275 7.17322 20.2099 6.90681Z" fill="white" fill-opacity="0.54"/>
</svg>
