<svg width="28" height="49" viewBox="0 0 28 49" fill="none" xmlns="http://www.w3.org/2000/svg">
<path d="M4.37091 45.4216H2.54873L3.44737 42.9023L4.37091 45.4216ZM5.46439 48.4051H7.73589C7.73589 48.4051 5.22235 41.8712 5.22149 41.8696C4.93911 41.1348 4.33057 41.0218 4.1353 41.0218H1.94019C2.27708 41.2757 2.39381 41.4419 2.39381 41.697C2.39381 41.8517 2.35647 41.9704 2.17322 42.4714L0 48.4055H1.48443L2.14103 46.5646H4.79019L5.46439 48.4051Z" fill="white" fill-opacity="0.6"/>
<path d="M14.6723 47.3591V45.0041C14.6723 44.5534 14.5689 44.3229 14.223 44.0376L15.8632 44.038C16.37 44.038 16.8043 44.4177 16.8043 44.897V48.2395C16.0031 48.4573 15.1903 48.5771 14.4487 48.5771C11.6094 48.5771 9.80957 47.0461 9.80957 44.7811C9.80957 42.5701 11.6133 40.847 14.4878 40.847C15.1418 40.847 15.7628 40.953 16.3263 41.1414V42.6193C15.8216 42.3118 15.183 42.1277 14.4878 42.1277C13.1093 42.1277 12.024 43.0061 12.024 44.6288C12.024 46.349 12.8463 47.4032 14.1659 47.4032C14.3311 47.4032 14.4955 47.3921 14.6723 47.3591Z" fill="white" fill-opacity="0.6"/>
<path d="M22.4883 41.9755C22.4883 41.4486 22.0386 41.0218 21.4841 41.0218H19.8945C20.2409 41.3062 20.3443 41.5375 20.3443 41.9874V48.4055H22.4883V45.301H24.9272V48.4055H27.0652V41.0432H24.9272V44.0489H22.4883V41.9755Z" fill="white" fill-opacity="0.6"/>
<path d="M19.3008 36.0999C21.0758 34.9719 22.6284 33.2282 22.6288 29.5366V7.3849H24.4034V29.5366C24.4034 33.6385 22.1851 35.2794 19.3008 36.0999Z" fill="white" fill-opacity="0.6"/>
<path d="M20.748 36.0999C22.4123 35.3821 25.2958 34.0491 25.2958 29.5366V7.3849H27.0707V29.5366C27.0707 35.0747 22.4123 35.8947 20.748 36.0999Z" fill="white" fill-opacity="0.6"/>
<path d="M18.1953 36.0999C19.5197 34.8688 19.9699 32.4082 19.9699 29.1259V7.3849H21.7453V29.5366C21.7453 33.2175 20.414 35.0747 18.1953 36.0999Z" fill="white" fill-opacity="0.6"/>
<path d="M9.54102 1.14441e-05C11.3164 1.12795 12.8691 2.87163 12.8691 6.56331V31.9968H14.6441V6.56331C14.6441 2.4614 12.4253 0.820473 9.54102 1.14441e-05Z" fill="white" fill-opacity="0.6"/>
<path d="M10.9854 1.14441e-05C12.6492 0.717716 15.5335 2.05116 15.5335 6.56331V31.9968H17.308V6.56331C17.308 1.02559 12.6492 0.205126 10.9854 1.14441e-05Z" fill="white" fill-opacity="0.6"/>
<path d="M8.43164 0.000354767C9.756 1.23105 10.2066 3.69243 10.2066 6.97388V31.9976L11.9816 31.9972V6.56365C11.9816 2.88268 10.6504 1.02593 8.43164 0.000354767Z" fill="white" fill-opacity="0.6"/>
<path d="M8.21144 36.0999C6.43647 34.9719 4.88381 33.2282 4.88338 29.5366V7.3849H3.1084V29.5366C3.1084 33.6385 5.32711 35.2794 8.21144 36.0999Z" fill="white" fill-opacity="0.6"/>
<path d="M6.76746 36.0999C5.10364 35.3821 2.2193 34.0491 2.2193 29.5366V7.3849H0.444336V29.5366C0.444336 35.0747 5.10364 35.8947 6.76746 36.0999Z" fill="white" fill-opacity="0.6"/>
<path d="M9.31753 36.0999C7.99273 34.8688 7.54255 32.4082 7.54255 29.1259V7.3849H5.76758V29.5366C5.76758 33.2175 7.09881 35.0747 9.31753 36.0999Z" fill="white" fill-opacity="0.6"/>
</svg>
