<svg width="110" height="63" viewBox="0 0 110 63" fill="none" xmlns="http://www.w3.org/2000/svg">
<path fill-rule="evenodd" clip-rule="evenodd" d="M54.2937 0.119467C51.2228 0.526367 47.9479 1.5358 44.6001 3.10751C42.9709 3.87252 38.6086 6.35276 37.5848 7.09645C37.3266 7.28356 37.0574 7.43704 36.9866 7.43704C36.9158 7.43704 36.8582 7.50052 36.8582 7.57773C36.8582 7.65494 36.8014 7.71841 36.7327 7.71841C36.6335 7.71841 34.811 8.98743 33.7109 9.82207C32.6303 10.642 31.6217 11.4421 31.5709 11.5193C31.5361 11.5719 31.3695 11.6965 31.2008 11.7955C31.032 11.8949 30.8341 12.0328 30.7603 12.1015C30.6865 12.1702 30.1231 12.6405 29.5076 13.1464C27.9479 14.4287 26.9627 15.3013 26.4637 15.8417C26.3743 15.9384 26.2615 16.0175 26.2132 16.0175C26.1644 16.0175 25.9143 16.2235 25.657 16.4751C25.3996 16.7261 25.0177 17.0904 24.8083 17.2836C21.3846 20.4451 15.541 26.568 15.7378 26.7878C15.8149 26.874 16.3147 26.5381 18.2767 25.0806C18.4772 24.9314 18.7706 24.7144 18.9283 24.5984C19.3132 24.3151 20.9076 23.2067 21.5579 22.7695C21.9988 22.4734 22.8132 21.923 23.6395 21.3631C23.7433 21.2925 24.3101 20.9349 24.8986 20.5682C25.487 20.2016 25.997 19.8662 26.0313 19.8236C26.0991 19.7397 26.4565 19.527 28.6122 18.2898C29.374 17.8526 30.0252 17.4632 30.06 17.4243C30.1999 17.268 36.399 13.9077 36.5478 13.9077C36.5771 13.9077 37.0129 13.6926 37.5161 13.4302C38.7472 12.7878 43.2091 10.813 43.43 10.813C43.5267 10.813 43.6593 10.7557 43.7255 10.6856C43.7912 10.6155 44.043 10.4928 44.2855 10.4137C44.528 10.3346 45.2076 10.0831 45.7964 9.85476C46.3848 9.62691 47.4612 9.23754 48.1882 8.99074C48.9153 8.74348 49.6517 8.48627 49.8246 8.41948C49.9976 8.35221 50.4792 8.21863 50.8946 8.12247C51.3101 8.02584 51.6916 7.87947 51.7425 7.79752C51.7934 7.7151 51.8358 7.68762 51.837 7.73547C51.8379 7.78378 52.2779 7.70468 52.8146 7.5602C54.3026 7.15898 56.6627 6.6365 58.1333 6.38308C58.8604 6.25802 59.8803 6.08229 60.3992 5.99323C60.9584 5.89755 62.9963 5.82886 65.3928 5.82554C68.5926 5.82081 69.4151 5.78291 69.3129 5.64554C68.4616 4.49968 65.7048 2.41734 63.7983 1.48085C61.4565 0.329786 57.2515 -0.272275 54.2937 0.119467ZM91.7356 5.80375C91.7068 5.8336 90.0403 5.93307 88.0321 6.02497C86.0244 6.11687 83.7016 6.24855 82.8707 6.31723C79.8544 6.56829 76.8072 6.87287 75.8839 7.01593C75.3645 7.09693 74.2034 7.25562 73.3034 7.36978C69.6444 7.83257 64.9154 8.6639 61.0288 9.52744C60.3713 9.67333 59.3513 9.89834 58.7629 10.0272C58.1744 10.156 57.6076 10.3019 57.5042 10.3507C57.4003 10.4 56.8619 10.5501 56.3079 10.6847C54.4557 11.1351 50.1082 12.3705 49.4469 12.6344C49.2739 12.7035 48.7923 12.8688 48.3769 13.002C46.8155 13.5026 45.9227 13.8153 43.7191 14.6338C42.4728 15.0966 41.2832 15.5604 41.0755 15.665C40.8677 15.7697 40.5277 15.9005 40.32 15.9559C40.1123 16.0113 39.8855 16.1027 39.8164 16.1596C39.7473 16.2159 39.4641 16.3415 39.1868 16.4381C38.91 16.5352 38.6298 16.6702 38.5637 16.738C38.4979 16.8062 38.3725 16.8616 38.2843 16.8616C38.1965 16.8616 37.8146 17.0198 37.4364 17.2135C37.0578 17.4068 36.7132 17.565 36.6704 17.565C36.6275 17.565 36.3265 17.6981 36.0014 17.8611C35.6762 18.024 35.212 18.2542 34.9695 18.3722C33.7715 18.9562 33.3056 19.1931 32.2373 19.7615C31.6001 20.1007 31.0193 20.3783 30.9468 20.3783C30.8748 20.3783 30.8154 20.4417 30.8154 20.519C30.8154 20.5962 30.773 20.6487 30.7209 20.635C30.5848 20.5995 29.8878 20.9799 29.7785 21.149C29.7276 21.2281 29.6852 21.2494 29.6844 21.1968C29.6818 21.0826 27.6423 22.2555 27.1017 22.6818C26.894 22.8457 26.724 22.958 26.724 22.9319C26.724 22.9059 26.568 22.9637 26.3777 23.0603C26.1873 23.1574 26.0313 23.3005 26.0313 23.3782C26.0313 23.4563 25.9953 23.4795 25.9512 23.4303C25.9071 23.381 25.6951 23.4809 25.4798 23.6529C25.2648 23.8248 24.8621 24.0963 24.5844 24.2564C23.8336 24.6898 22.7573 25.4401 22.2235 25.9015C21.9637 26.126 21.7504 26.2572 21.7491 26.1923C21.7483 26.1279 21.7059 26.1383 21.655 26.216C21.6042 26.2932 21.1942 26.6376 20.744 26.9806C18.4531 28.728 16.2121 30.727 16.2121 31.0226C16.2121 31.2102 16.2651 31.1917 17.6599 30.5091C17.9367 30.3736 18.3475 30.2173 18.5726 30.1623C18.7977 30.1069 18.9817 30.0037 18.9817 29.9326C18.9817 29.8611 19.0648 29.8028 19.1665 29.8028C19.2683 29.8028 19.9907 29.5257 20.7716 29.1865C21.5529 28.8474 22.6169 28.4054 23.1358 28.2046C23.6552 28.0033 24.7315 27.5793 25.5281 27.2629C26.3242 26.946 27.0322 26.6741 27.1017 26.6585C27.1708 26.6428 27.284 26.5917 27.3531 26.5452C27.4227 26.4984 27.6774 26.414 27.9199 26.3581C28.162 26.3022 28.5304 26.1748 28.7381 26.0753C28.9459 25.9754 29.9654 25.5979 31.0041 25.236C32.0427 24.8745 33.1191 24.4913 33.3959 24.3852C33.6731 24.2791 34.2111 24.1001 34.5918 23.9878C34.9729 23.8755 35.9925 23.5548 36.8582 23.2758C37.7234 22.9964 38.6298 22.7065 38.8723 22.6311C39.8855 22.3157 43.6814 21.2366 44.7891 20.9481C45.4471 20.7771 46.4234 20.5156 46.9588 20.3669C47.4947 20.2177 48.1458 20.0614 48.4066 20.0192C48.6673 19.9771 48.9653 19.9088 49.0692 19.8676C49.2722 19.7876 51.0006 19.3901 53.0351 18.9567C57.8455 17.9317 62.6079 17.1373 66.8197 16.6584C67.8236 16.5442 69.1268 16.386 69.7152 16.3074C70.304 16.2287 71.7768 16.0966 72.9884 16.0142C74.2 15.9322 75.5596 15.8389 76.0098 15.8067C78.5547 15.6267 86.1257 15.5727 87.9927 15.7219C89.1225 15.8119 90.8962 15.9521 91.9349 16.0331C92.9735 16.1141 94.3615 16.2699 95.019 16.3798C96.8822 16.6896 96.9945 16.6693 97.7746 15.8773C97.889 15.7612 98.3778 15.3193 98.8611 14.8958C99.3444 14.4718 100.843 13.1426 102.19 11.9418C103.538 10.7406 104.823 9.59991 105.048 9.40665C106.962 7.75347 108.615 6.25897 108.615 6.18081C108.615 5.90844 91.9921 5.53707 91.7356 5.80375ZM71.8556 19.8132C70.6436 19.8776 69.0293 20.0017 68.2675 20.0893C67.5061 20.1765 66.0329 20.3408 64.9943 20.4541C61.7902 20.8036 55.6232 21.7913 53.6015 22.2792C53.4285 22.3209 52.6917 22.4781 51.9646 22.6288C51.238 22.7789 50.1048 23.0271 49.4469 23.1797C48.7894 23.3322 47.8262 23.5548 47.3069 23.6742C46.7876 23.7941 46.0228 23.9845 45.6073 24.0977C43.9485 24.5496 39.6388 25.7556 38.8095 26C36.1019 26.7982 34.5002 27.297 34.2773 27.4112C34.1386 27.4822 33.7706 27.612 33.4591 27.6992C32.8999 27.8559 31.5535 28.3045 30.9413 28.5381C30.7679 28.6044 30.0315 28.8583 29.3045 29.1027C28.5775 29.3471 27.8695 29.6001 27.7309 29.6654C27.5927 29.7303 27.2527 29.8554 26.9758 29.9435C26.6986 30.0316 26.359 30.1595 26.2204 30.2272C26.0818 30.295 25.4586 30.5427 24.8354 30.7777C22.7484 31.5645 21.2637 32.158 20.4294 32.5398C20.2217 32.6345 19.5417 32.9282 18.9185 33.1916C17.5734 33.761 17.8125 33.886 19.5646 33.5298C23.5852 32.7118 27.1929 32.0339 30.8781 31.4039C31.5709 31.2855 32.2504 31.168 32.389 31.1424C32.5273 31.1173 33.292 30.9894 34.0886 30.8582C34.8848 30.7275 35.6495 30.5996 35.7882 30.5745C37.28 30.3049 42.8047 29.4949 45.9223 29.0885C49.7492 28.5902 50.118 28.5456 51.0837 28.4623C51.603 28.4177 52.1656 28.3486 52.3339 28.3093C52.6832 28.2273 57.8251 27.747 60.4624 27.5499C70.4406 26.8044 80.0249 27.0052 84.4677 28.0535C84.6987 28.108 84.8781 28.0525 85.0349 27.8777C85.2626 27.6243 85.6789 27.2449 90.0373 23.3256C91.2888 22.2001 92.3126 21.2214 92.3126 21.1509C92.3126 20.9249 88.4633 20.3167 84.6962 19.9477C82.8834 19.7696 74.3501 19.6805 71.8556 19.8132ZM12.4353 38.7906C8.08828 40.3434 8.02469 47.3242 12.3416 49.0872C13.7309 49.6547 16.1384 49.3714 17.2164 48.5136L17.5967 48.2109V46.1106V44.0102H16.0163H14.4359L14.474 44.6781L14.5126 45.3465L15.2994 45.3882L16.0862 45.4303V46.444C16.0862 47.7268 15.8764 47.8807 14.1349 47.8741C11.9571 47.8665 10.8583 46.544 10.8651 43.9396C10.8735 40.8943 13.5023 39.0706 15.756 40.5461C16.6535 41.134 17.4708 40.854 17.4708 39.9587C17.4708 39.0147 14.0378 38.2179 12.4353 38.7906ZM33.8597 38.7944C32.7087 39.3046 32.2 40.1932 32.2 41.6939C32.2 43.349 32.9503 44.1675 34.9068 44.6478C35.9709 44.9088 36.5377 45.5947 36.4453 46.5099C36.2998 47.9551 34.727 48.4047 33.3777 47.3872C32.6396 46.8306 32.2381 46.8647 31.9003 47.5127L31.6514 47.9911L32.0202 48.3293C33.9462 50.0952 36.8895 49.623 37.7531 47.4094C38.5509 45.3645 37.4962 43.5503 35.1586 42.9468C33.9309 42.6299 33.2747 41.5901 33.8012 40.7972C34.3392 39.9876 35.2845 39.846 36.3015 40.4225C37.2423 40.9559 37.5284 40.8625 37.6878 39.972C37.876 38.9199 35.3375 38.1393 33.8597 38.7944ZM42.0263 38.8318C38.1003 40.1927 37.9553 47.3928 41.8207 49.0455C42.998 49.5491 46.0478 49.3511 46.0478 48.7713C46.0478 48.7059 46.1355 48.6519 46.2428 48.6519C46.9308 48.6519 48.0996 46.6018 48.3209 45.0064C48.9327 40.6011 45.7964 37.5249 42.0263 38.8318ZM88.072 38.801C85.8107 39.5954 84.6284 41.8099 84.8904 44.7605C85.3618 50.0701 91.9586 51.1966 93.9079 46.3C95.6401 41.9487 92.0922 37.3894 88.072 38.801ZM3.62298 38.9815C3.55685 39.1554 3.24313 40.0573 2.92603 40.9857C2.60935 41.9141 2.27487 42.8639 2.1833 43.096C2.09215 43.3281 1.8645 43.961 1.67839 44.5024C1.49186 45.0438 1.26548 45.6771 1.17476 45.9092C1.08404 46.1414 0.857654 46.7742 0.671123 47.3156C0.484592 47.8571 0.251429 48.4999 0.152228 48.7438C-0.0987412 49.3615 -0.10298 49.3558 0.633394 49.3535C1.52832 49.3501 1.60632 49.271 2.11292 47.85L2.55424 46.6122H4.56623C6.47818 46.6122 6.58035 46.6264 6.62571 46.8936C6.65199 47.0485 6.71092 47.2067 6.7567 47.2455C6.80249 47.2839 6.94027 47.678 7.06236 48.1204C7.36039 49.2 7.52275 49.3553 8.35282 49.3553C9.12056 49.3553 9.12946 49.3369 8.79667 48.4075C7.82544 45.6937 7.46552 44.6791 6.8381 42.8847C6.44554 41.763 6.02245 40.5921 5.89781 40.2823C5.77317 39.973 5.59555 39.4822 5.50313 39.1923L5.33483 38.6646H4.5391C3.83367 38.6646 3.72981 38.7006 3.62298 38.9815ZM19.2335 44.0102V49.3553H20.0517H20.8699V46.9642V44.573H23.199H25.5281V46.9642V49.3553H26.2831H27.0386V44.0102V38.6646H26.2831H25.5281V40.9857V43.3068H23.199H20.8699V40.9857V38.6646H20.0517H19.2335V44.0102ZM49.9505 44.0102V49.3553H53.4124C57.1464 49.3553 57.3766 49.3085 57.3787 48.5468C57.3791 48.4113 57.458 48.1323 57.5538 47.9272C57.6496 47.7221 57.7954 47.3261 57.8777 47.048L58.0269 46.5421H60.0219H62.0166L62.1687 47.0698C62.2523 47.3597 62.3642 47.6605 62.4172 47.7377C62.4702 47.8149 62.5867 48.1536 62.6762 48.4899C62.8606 49.1839 63.1217 49.3553 63.9955 49.3553C64.3024 49.3553 64.5538 49.3392 64.5538 49.3198C64.5538 49.2341 63.9255 47.3592 63.7555 46.9367C63.6525 46.6809 63.3062 45.7122 62.9861 44.7838C62.6656 43.8553 62.3273 42.9027 62.234 42.6673C62.1408 42.4314 61.9123 41.7986 61.7262 41.2604C61.5396 40.7228 61.2581 39.9341 61.1004 39.5087L60.8134 38.7352H60.0228H59.2321L58.8629 39.7901C58.6598 40.3704 58.4106 41.0497 58.3088 41.2993C58.2075 41.5489 57.982 42.1822 57.8082 42.7062C57.6343 43.2296 57.408 43.8629 57.3045 44.1125C57.2015 44.3622 56.9747 44.9955 56.8013 45.5194C56.6275 46.0433 56.4003 46.6766 56.2968 46.9272C56.1934 47.1778 55.9721 47.7794 55.8055 48.2635L55.502 49.1446L55.496 48.4762L55.4897 47.8083H53.4755H51.4614V43.2362V38.6646H50.706H49.9505V44.0102ZM65.5611 43.9936V49.3553H66.3161H67.0715V47.1749V44.9945H67.593C68.0084 44.9945 68.1878 45.0808 68.4752 45.4166C68.674 45.6487 68.8076 45.8387 68.7724 45.8387C68.7067 45.8387 69.8021 47.5416 69.9484 47.6676C69.9937 47.706 70.1078 47.9059 70.2027 48.1119C70.639 49.0583 71.0319 49.3553 71.8484 49.3553C72.8379 49.3553 72.7641 49.046 71.2634 46.8903C71.2083 46.8112 70.9667 46.4313 70.7267 46.0466C70.4872 45.6615 70.218 45.2627 70.129 45.1603C69.8903 44.8865 69.928 44.7468 70.3134 44.4801C72.0986 43.2433 72.4186 40.818 70.976 39.4614C70.3842 38.9057 69.8288 38.7802 67.6065 38.703L65.5611 38.6319V43.9936ZM77.0171 44.0254V49.3861L79.3144 49.3227C82.0123 49.2483 82.3158 49.1536 83.2565 48.0892C84.3405 46.8637 83.789 44.2807 82.3671 43.9245L81.9894 43.8297L82.3044 43.6739C83.4121 43.1258 83.836 41.5451 83.2472 40.1586C82.7635 39.0194 81.7028 38.6675 78.748 38.666L77.0171 38.6646V44.0254ZM98.0374 39.0256C97.97 39.224 97.9145 39.4647 97.9145 39.5604C97.9145 39.6556 97.8657 39.7939 97.8055 39.8673C97.7457 39.9412 97.485 40.6025 97.226 41.3377C96.9665 42.0724 96.5286 43.3068 96.2518 44.0803C95.975 44.8539 95.5532 46.0509 95.3141 46.7401C95.075 47.4293 94.7973 48.1697 94.6977 48.3857C94.3475 49.1422 94.4407 49.3553 95.1212 49.3553C95.9169 49.3553 96.1242 49.1213 96.5926 47.6936L96.9704 46.5435L98.9565 46.5426L100.942 46.5421L101.068 46.9291C101.136 47.1418 101.243 47.4421 101.305 47.597C101.366 47.7519 101.512 48.1631 101.628 48.5108C101.891 49.2942 101.969 49.3506 102.807 49.3535C103.554 49.3558 103.581 49.2578 103.138 48.1598C103.045 47.9276 102.816 47.2948 102.629 46.7529C102.443 46.2115 102.215 45.5786 102.124 45.3465C102.033 45.1144 101.696 44.1684 101.376 43.2443C101.056 42.3201 100.693 41.3073 100.57 40.9938C100.446 40.6797 100.216 40.0274 100.059 39.5438L99.7722 38.6646H98.9662C98.2167 38.6646 98.1514 38.6902 98.0374 39.0256ZM102.573 39.4386V40.2122H104.083H105.594V44.7838V49.3553H106.349H107.105V44.7838V40.2122H108.552H110V39.4386V38.6646H106.286H102.573V39.4386ZM45.1325 40.5144C46.6074 41.2979 47.415 45.2456 46.3077 46.2607C46.2657 46.2996 46.1322 46.5047 46.0113 46.7169C45.2241 48.0991 42.4961 48.2062 41.4888 46.8936C39.8609 44.7724 40.6473 40.6674 42.7568 40.2747C43.009 40.2273 43.2723 40.1653 43.3414 40.1359C43.6008 40.0265 44.6191 40.2415 45.1325 40.5144ZM69.0785 40.2235C71.3058 40.7574 70.533 43.4721 68.0937 43.6824L67.0715 43.7705V41.9208V40.0715H67.7579C68.1352 40.0715 68.7296 40.1397 69.0785 40.2235ZM80.8672 40.2297C81.5828 40.431 81.9275 40.9019 81.9237 41.673C81.9182 42.8085 81.211 43.3068 79.6039 43.3068H78.5275V41.6891V40.0715H79.4161C79.9045 40.0715 80.5577 40.1425 80.8672 40.2297ZM90.9293 40.4395C92.3113 41.1501 92.954 43.141 92.5131 45.3432C91.909 48.3601 87.8443 48.7514 86.7764 45.896C86.325 44.6876 86.4674 42.1515 87.0219 41.5319C87.1245 41.4172 87.2805 41.2098 87.3687 41.07C87.9122 40.2103 89.8245 39.8711 90.9293 40.4395ZM99.2359 41.4783C99.2477 41.5167 99.3236 41.7266 99.4046 41.9445C99.4851 42.1624 99.5513 42.4087 99.5513 42.4916C99.5513 42.5749 99.6573 42.9032 99.7866 43.2211C99.9159 43.5389 100.138 44.1315 100.279 44.5374L100.537 45.2759H98.9739C98.1146 45.2759 97.4113 45.2437 97.4113 45.2039C97.4113 45.1641 97.4672 45.0215 97.5355 44.8875C97.6508 44.6615 98.2896 42.8156 98.7611 41.3462C98.9688 40.6991 98.9976 40.7072 99.2359 41.4783ZM4.82738 41.5835C4.94735 41.9511 5.15042 42.529 5.27844 42.8677C5.40647 43.2059 5.5133 43.5541 5.51585 43.6412C5.51797 43.7279 5.62946 44.0524 5.76342 44.3617C6.16319 45.2868 6.17761 45.2759 4.51918 45.2759H3.02311L3.20074 44.6781C3.29825 44.3494 3.43051 43.9539 3.49495 43.799C3.74507 43.1969 4.37716 41.2581 4.37801 41.0913C4.37928 40.6915 4.62389 40.9597 4.82738 41.5835ZM60.2424 41.3727C60.5035 42.2434 61.284 44.5033 61.4082 44.7468C61.6575 45.2361 61.5523 45.2759 60.0219 45.2759C59.191 45.2759 58.511 45.2465 58.511 45.211C58.511 45.1291 58.9706 43.7985 59.1931 43.2362C59.2851 43.0046 59.4941 42.3874 59.6582 41.8649C59.9978 40.7844 60.0525 40.7384 60.2424 41.3727ZM81.5888 44.861C82.2124 45.1911 82.4621 46.2119 82.0941 46.9286C81.7337 47.6302 81.2496 47.8405 79.818 47.9167L78.5275 47.9854V46.2612V44.5365L79.8807 44.6047C80.6252 44.6426 81.3937 44.7577 81.5888 44.861ZM34.9695 52.9421V53.2941H36.6063H38.2427V58.147V63H38.6205H38.9982V58.147V53.2941H40.6346H42.2714V52.9421V52.5907H38.6205H34.9695V52.9421ZM43.7819 57.7951V63H46.5514H49.321V62.5779V62.1559H46.9292H44.5373V60.1162V58.0765H46.5514H48.566V57.6544V57.2328H46.5514H44.5373V55.2632V53.2941H46.9292H49.321V52.9421V52.5907H46.5514H43.7819V57.7951ZM53.6532 53.1093C53.5468 53.4045 53.3785 53.845 53.2788 54.0889C53.1792 54.3329 53.0978 54.5735 53.0978 54.6242C53.0978 54.6749 52.9906 54.9818 52.8591 55.3063C52.7277 55.6308 52.4691 56.3077 52.2847 56.8108C52.1003 57.3134 51.8676 57.9244 51.7679 58.1684C51.6687 58.4118 51.5873 58.6558 51.5873 58.7098C51.5873 58.7638 51.5068 59.0073 51.4084 59.2512C50.8658 60.5989 50.0764 62.7883 50.0764 62.9465C50.0764 62.9758 50.2685 63 50.5029 63C50.9044 63 51.3326 62.4467 51.3359 61.9238C51.3364 61.8579 51.4097 61.6462 51.4983 61.4525C51.5873 61.2592 51.7616 60.8002 51.8858 60.4326L52.1118 59.7647H54.3043C55.6376 59.7647 56.4969 59.8182 56.4969 59.9011C56.4969 59.976 56.6385 60.3838 56.8115 60.8063C56.9849 61.2293 57.1265 61.6197 57.1265 61.6741C57.1265 62.2028 57.7077 63 58.0926 63C58.3228 63 58.511 62.9749 58.511 62.9441C58.511 62.8806 57.8281 61.0403 57.5585 60.3762C57.4593 60.1328 57.3783 59.8888 57.3783 59.8348C57.3783 59.7808 57.2973 59.5373 57.199 59.2934C57.1002 59.0499 56.8412 58.3754 56.6228 57.7951C56.4045 57.2153 56.1451 56.5408 56.0467 56.2973C55.9479 56.0533 55.8674 55.8099 55.8674 55.7559C55.8674 55.7019 55.7847 55.4579 55.6838 55.2144C55.5825 54.9705 55.3315 54.2964 55.1255 53.7161C54.6498 52.3751 54.0131 52.1127 53.6532 53.1093ZM59.7701 57.7951V63H60.1478H60.5252V58.6899V54.3803L60.8147 54.8568C60.9737 55.1192 61.1424 55.4285 61.1899 55.5446C61.2369 55.6606 61.4158 56.0088 61.5875 56.3181C61.7596 56.6279 61.9983 57.1026 62.1187 57.3735C62.2391 57.644 62.3688 57.8974 62.407 57.9358C62.4451 57.9746 62.5571 58.1646 62.6558 58.3578C64.4961 61.9693 64.3177 61.9247 65.7573 59.1318C66.9931 56.734 67.5379 55.6512 67.8808 54.9117L68.1416 54.349L68.175 58.6743L68.2081 63H68.5841H68.9602V57.7951V52.5907H68.5392C68.1611 52.5907 68.0826 52.6655 67.7617 53.3291C67.565 53.7356 67.2933 54.2893 67.1572 54.5598C67.0211 54.8307 66.7689 55.3371 66.5967 55.6853C66.2457 56.3958 65.9379 57.0002 65.7489 57.3498C65.6793 57.4787 65.3678 58.1063 65.0566 58.7448C64.38 60.1323 64.4538 60.1143 63.9077 59.0262C61.0453 53.3239 60.6214 52.5907 60.1877 52.5907H59.7701V57.7951ZM55.201 56.3499C55.6461 57.5701 56.0412 58.6799 56.0794 58.8149C56.1434 59.0423 56.0001 59.0613 54.2382 59.0613C53.1873 59.0613 52.3479 59.0139 52.3725 58.9556C52.7625 58.0386 53.2267 56.7975 53.612 55.6417C54.0411 54.3542 54.2246 53.9435 54.3217 54.052C54.3603 54.0951 54.7558 55.1292 55.201 56.3499Z" fill="white"/>
</svg>
